<mxfile host="app.diagrams.net" modified="2023-09-12T02:03:01.381Z" agent="Mozilla/5.0 (Windows NT 10.0; Win64; x64) AppleWebKit/537.36 (KHTML, like Gecko) Chrome/116.0.0.0 Safari/537.36" etag="EAD3-HecfaAVnCH-JS53" version="21.7.4" type="github">
  <diagram name="Halaman-1" id="g_RFvy_UEJs0hV-kcKUU">
    <mxGraphModel dx="1467" dy="797" grid="1" gridSize="10" guides="1" tooltips="1" connect="1" arrows="1" fold="1" page="1" pageScale="1" pageWidth="827" pageHeight="1169" math="0" shadow="0">
      <root>
        <mxCell id="0" />
        <mxCell id="1" parent="0" />
        <mxCell id="DJt1GYLp_gGER5Pjzmev-4" value="" style="rounded=0;whiteSpace=wrap;html=1;rotation=90;" vertex="1" parent="1">
          <mxGeometry x="126.25" y="490.75" width="620" height="362.5" as="geometry" />
        </mxCell>
        <mxCell id="DJt1GYLp_gGER5Pjzmev-6" value="BalapKarung" style="text;html=1;strokeColor=none;fillColor=none;align=center;verticalAlign=middle;whiteSpace=wrap;rounded=0;fontSize=30;fontStyle=1" vertex="1" parent="1">
          <mxGeometry x="286.25" y="350" width="300" height="70" as="geometry" />
        </mxCell>
        <mxCell id="DJt1GYLp_gGER5Pjzmev-7" value="&lt;font style=&quot;font-size: 25px;&quot;&gt;pemain&lt;/font&gt;" style="shape=umlActor;verticalLabelPosition=bottom;verticalAlign=top;html=1;outlineConnect=0;" vertex="1" parent="1">
          <mxGeometry x="40" y="510" width="120" height="259.55" as="geometry" />
        </mxCell>
        <mxCell id="DJt1GYLp_gGER5Pjzmev-10" value="&lt;font style=&quot;font-size: 23px;&quot;&gt;loncat&lt;/font&gt;" style="ellipse;whiteSpace=wrap;html=1;fontSize=17;" vertex="1" parent="1">
          <mxGeometry x="300.40999999999997" y="440" width="271.67" height="130" as="geometry" />
        </mxCell>
        <mxCell id="DJt1GYLp_gGER5Pjzmev-12" value="&lt;font style=&quot;font-size: 25px;&quot;&gt;juri&lt;/font&gt;" style="shape=umlActor;verticalLabelPosition=bottom;verticalAlign=top;html=1;outlineConnect=0;" vertex="1" parent="1">
          <mxGeometry x="690" y="500" width="120" height="260" as="geometry" />
        </mxCell>
        <mxCell id="DJt1GYLp_gGER5Pjzmev-69" style="edgeStyle=orthogonalEdgeStyle;rounded=0;orthogonalLoop=1;jettySize=auto;html=1;exitX=0.5;exitY=1;exitDx=0;exitDy=0;" edge="1" parent="1" source="DJt1GYLp_gGER5Pjzmev-10" target="DJt1GYLp_gGER5Pjzmev-10">
          <mxGeometry relative="1" as="geometry" />
        </mxCell>
        <mxCell id="DJt1GYLp_gGER5Pjzmev-71" value="&lt;font style=&quot;font-size: 23px;&quot;&gt;finish&lt;/font&gt;" style="ellipse;whiteSpace=wrap;html=1;fontSize=17;" vertex="1" parent="1">
          <mxGeometry x="300.40999999999997" y="780" width="271.67" height="130" as="geometry" />
        </mxCell>
        <mxCell id="DJt1GYLp_gGER5Pjzmev-72" value="&lt;font style=&quot;font-size: 23px;&quot;&gt;maju&lt;/font&gt;" style="ellipse;whiteSpace=wrap;html=1;fontSize=17;" vertex="1" parent="1">
          <mxGeometry x="300.40999999999997" y="620" width="271.67" height="130" as="geometry" />
        </mxCell>
        <mxCell id="DJt1GYLp_gGER5Pjzmev-74" value="" style="endArrow=none;html=1;rounded=0;exitX=1;exitY=0.3333333333333333;exitDx=0;exitDy=0;exitPerimeter=0;" edge="1" parent="1" source="DJt1GYLp_gGER5Pjzmev-7" target="DJt1GYLp_gGER5Pjzmev-10">
          <mxGeometry width="50" height="50" relative="1" as="geometry">
            <mxPoint x="370" y="660" as="sourcePoint" />
            <mxPoint x="420" y="610" as="targetPoint" />
            <Array as="points">
              <mxPoint x="190" y="540" />
            </Array>
          </mxGeometry>
        </mxCell>
        <mxCell id="DJt1GYLp_gGER5Pjzmev-75" value="" style="endArrow=none;html=1;rounded=0;exitX=1;exitY=0.3333333333333333;exitDx=0;exitDy=0;exitPerimeter=0;" edge="1" parent="1" source="DJt1GYLp_gGER5Pjzmev-7" target="DJt1GYLp_gGER5Pjzmev-72">
          <mxGeometry width="50" height="50" relative="1" as="geometry">
            <mxPoint x="370" y="660" as="sourcePoint" />
            <mxPoint x="420" y="610" as="targetPoint" />
            <Array as="points">
              <mxPoint x="200" y="640" />
            </Array>
          </mxGeometry>
        </mxCell>
        <mxCell id="DJt1GYLp_gGER5Pjzmev-76" value="" style="endArrow=none;html=1;rounded=0;exitX=0;exitY=0.3333333333333333;exitDx=0;exitDy=0;exitPerimeter=0;" edge="1" parent="1" source="DJt1GYLp_gGER5Pjzmev-12" target="DJt1GYLp_gGER5Pjzmev-71">
          <mxGeometry width="50" height="50" relative="1" as="geometry">
            <mxPoint x="370" y="660" as="sourcePoint" />
            <mxPoint x="420" y="610" as="targetPoint" />
            <Array as="points">
              <mxPoint x="650" y="680" />
            </Array>
          </mxGeometry>
        </mxCell>
        <mxCell id="DJt1GYLp_gGER5Pjzmev-84" value="" style="endArrow=none;html=1;rounded=0;" edge="1" parent="1">
          <mxGeometry width="50" height="50" relative="1" as="geometry">
            <mxPoint x="160" y="601" as="sourcePoint" />
            <mxPoint x="341.2768319689319" y="799.526215644371" as="targetPoint" />
            <Array as="points">
              <mxPoint x="200" y="731" />
            </Array>
          </mxGeometry>
        </mxCell>
      </root>
    </mxGraphModel>
  </diagram>
</mxfile>
